<mxfile host="app.diagrams.net" agent="Mozilla/5.0 (Windows NT 10.0; Win64; x64) AppleWebKit/537.36 (KHTML, like Gecko) Chrome/140.0.0.0 Safari/537.36" version="28.1.2">
  <diagram name="Page-1" id="X6T7yd39vpxPcCKRYVY-">
    <mxGraphModel dx="1295" dy="679" grid="1" gridSize="10" guides="1" tooltips="1" connect="1" arrows="1" fold="1" page="1" pageScale="1" pageWidth="850" pageHeight="1100" math="0" shadow="0">
      <root>
        <mxCell id="0" />
        <mxCell id="1" parent="0" />
        <mxCell id="Y4aGGK53T3HVxLGOiuW0-4" style="edgeStyle=orthogonalEdgeStyle;rounded=0;orthogonalLoop=1;jettySize=auto;html=1;exitX=0.5;exitY=1;exitDx=0;exitDy=0;entryX=0.5;entryY=0;entryDx=0;entryDy=0;" edge="1" parent="1" source="Y4aGGK53T3HVxLGOiuW0-1" target="Y4aGGK53T3HVxLGOiuW0-2">
          <mxGeometry relative="1" as="geometry" />
        </mxCell>
        <mxCell id="Y4aGGK53T3HVxLGOiuW0-1" value="start" style="rounded=1;whiteSpace=wrap;html=1;" vertex="1" parent="1">
          <mxGeometry x="320" y="10" width="100" height="30" as="geometry" />
        </mxCell>
        <mxCell id="Y4aGGK53T3HVxLGOiuW0-27" value="" style="edgeStyle=orthogonalEdgeStyle;rounded=0;orthogonalLoop=1;jettySize=auto;html=1;" edge="1" parent="1" source="Y4aGGK53T3HVxLGOiuW0-2" target="Y4aGGK53T3HVxLGOiuW0-26">
          <mxGeometry relative="1" as="geometry" />
        </mxCell>
        <mxCell id="Y4aGGK53T3HVxLGOiuW0-2" value="input Name, bid" style="rounded=1;whiteSpace=wrap;html=1;" vertex="1" parent="1">
          <mxGeometry x="320" y="60" width="100" height="30" as="geometry" />
        </mxCell>
        <mxCell id="Y4aGGK53T3HVxLGOiuW0-13" value="" style="edgeStyle=orthogonalEdgeStyle;rounded=0;orthogonalLoop=1;jettySize=auto;html=1;" edge="1" parent="1" source="Y4aGGK53T3HVxLGOiuW0-7" target="Y4aGGK53T3HVxLGOiuW0-12">
          <mxGeometry relative="1" as="geometry" />
        </mxCell>
        <mxCell id="Y4aGGK53T3HVxLGOiuW0-17" value="no&lt;div&gt;&lt;br&gt;&lt;/div&gt;" style="edgeLabel;html=1;align=center;verticalAlign=middle;resizable=0;points=[];" vertex="1" connectable="0" parent="Y4aGGK53T3HVxLGOiuW0-13">
          <mxGeometry x="-0.1" relative="1" as="geometry">
            <mxPoint as="offset" />
          </mxGeometry>
        </mxCell>
        <mxCell id="Y4aGGK53T3HVxLGOiuW0-18" value="No" style="edgeLabel;html=1;align=center;verticalAlign=middle;resizable=0;points=[];" vertex="1" connectable="0" parent="Y4aGGK53T3HVxLGOiuW0-13">
          <mxGeometry x="-0.1278" y="4" relative="1" as="geometry">
            <mxPoint as="offset" />
          </mxGeometry>
        </mxCell>
        <mxCell id="Y4aGGK53T3HVxLGOiuW0-20" value="" style="edgeStyle=orthogonalEdgeStyle;rounded=0;orthogonalLoop=1;jettySize=auto;html=1;" edge="1" parent="1" source="Y4aGGK53T3HVxLGOiuW0-7" target="Y4aGGK53T3HVxLGOiuW0-19">
          <mxGeometry relative="1" as="geometry" />
        </mxCell>
        <mxCell id="Y4aGGK53T3HVxLGOiuW0-7" value="new User?" style="rhombus;whiteSpace=wrap;html=1;rounded=1;" vertex="1" parent="1">
          <mxGeometry x="330" y="220" width="80" height="80" as="geometry" />
        </mxCell>
        <mxCell id="Y4aGGK53T3HVxLGOiuW0-16" value="" style="edgeStyle=orthogonalEdgeStyle;rounded=0;orthogonalLoop=1;jettySize=auto;html=1;" edge="1" parent="1" source="Y4aGGK53T3HVxLGOiuW0-10" target="Y4aGGK53T3HVxLGOiuW0-7">
          <mxGeometry relative="1" as="geometry" />
        </mxCell>
        <mxCell id="Y4aGGK53T3HVxLGOiuW0-10" value="store in dictionary" style="rounded=1;whiteSpace=wrap;html=1;" vertex="1" parent="1">
          <mxGeometry x="320" y="160" width="100" height="25" as="geometry" />
        </mxCell>
        <mxCell id="Y4aGGK53T3HVxLGOiuW0-15" value="" style="edgeStyle=orthogonalEdgeStyle;rounded=0;orthogonalLoop=1;jettySize=auto;html=1;" edge="1" parent="1" source="Y4aGGK53T3HVxLGOiuW0-12" target="Y4aGGK53T3HVxLGOiuW0-14">
          <mxGeometry relative="1" as="geometry" />
        </mxCell>
        <mxCell id="Y4aGGK53T3HVxLGOiuW0-12" value="caculate the highest bid in dictionary&lt;div&gt;&lt;br&gt;&lt;/div&gt;" style="whiteSpace=wrap;html=1;rounded=1;" vertex="1" parent="1">
          <mxGeometry x="480" y="230" width="120" height="60" as="geometry" />
        </mxCell>
        <mxCell id="Y4aGGK53T3HVxLGOiuW0-14" value="print the highest bid and the key&amp;nbsp;&lt;div&gt;&lt;br&gt;&lt;/div&gt;" style="whiteSpace=wrap;html=1;rounded=1;" vertex="1" parent="1">
          <mxGeometry x="480" y="420" width="120" height="60" as="geometry" />
        </mxCell>
        <mxCell id="Y4aGGK53T3HVxLGOiuW0-24" style="edgeStyle=orthogonalEdgeStyle;rounded=0;orthogonalLoop=1;jettySize=auto;html=1;exitX=0;exitY=0.5;exitDx=0;exitDy=0;entryX=0;entryY=0.5;entryDx=0;entryDy=0;" edge="1" parent="1" source="Y4aGGK53T3HVxLGOiuW0-19" target="Y4aGGK53T3HVxLGOiuW0-2">
          <mxGeometry relative="1" as="geometry" />
        </mxCell>
        <mxCell id="Y4aGGK53T3HVxLGOiuW0-19" value="print \n * 100" style="whiteSpace=wrap;html=1;rounded=1;" vertex="1" parent="1">
          <mxGeometry x="310" y="420" width="120" height="60" as="geometry" />
        </mxCell>
        <mxCell id="Y4aGGK53T3HVxLGOiuW0-30" value="" style="edgeStyle=orthogonalEdgeStyle;rounded=0;orthogonalLoop=1;jettySize=auto;html=1;" edge="1" parent="1" source="Y4aGGK53T3HVxLGOiuW0-26" target="Y4aGGK53T3HVxLGOiuW0-10">
          <mxGeometry relative="1" as="geometry" />
        </mxCell>
        <mxCell id="Y4aGGK53T3HVxLGOiuW0-26" value="bid price&lt;div&gt;&lt;br&gt;&lt;/div&gt;" style="whiteSpace=wrap;html=1;rounded=1;" vertex="1" parent="1">
          <mxGeometry x="315" y="110" width="110" height="25" as="geometry" />
        </mxCell>
      </root>
    </mxGraphModel>
  </diagram>
</mxfile>
